<svg id="visual" viewBox="0 0 960 540" width="960" height="540" xmlns="http://www.w3.org/2000/svg" xmlns:xlink="http://www.w3.org/1999/xlink" version="1.1"><path d="M0 66L69 66L69 136L137 136L137 98L206 98L206 77L274 77L274 66L343 66L343 77L411 77L411 71L480 71L480 104L549 104L549 71L617 71L617 77L686 77L686 55L754 55L754 77L823 77L823 93L891 93L891 131L960 131L960 98L960 0L960 0L891 0L891 0L823 0L823 0L754 0L754 0L686 0L686 0L617 0L617 0L549 0L549 0L480 0L480 0L411 0L411 0L343 0L343 0L274 0L274 0L206 0L206 0L137 0L137 0L69 0L69 0L0 0Z" fill="#00b6b9"></path><path d="M0 266L69 266L69 266L137 266L137 244L206 244L206 325L274 325L274 271L343 271L343 185L411 185L411 293L480 293L480 282L549 282L549 282L617 282L617 239L686 239L686 222L754 222L754 190L823 190L823 303L891 303L891 293L960 293L960 293L960 96L960 129L891 129L891 91L823 91L823 75L754 75L754 53L686 53L686 75L617 75L617 69L549 69L549 102L480 102L480 69L411 69L411 75L343 75L343 64L274 64L274 75L206 75L206 96L137 96L137 134L69 134L69 64L0 64Z" fill="#008796"></path><path d="M0 336L69 336L69 325L137 325L137 330L206 330L206 390L274 390L274 309L343 309L343 271L411 271L411 368L480 368L480 347L549 347L549 341L617 341L617 325L686 325L686 298L754 298L754 276L823 276L823 363L891 363L891 368L960 368L960 347L960 291L960 291L891 291L891 301L823 301L823 188L754 188L754 220L686 220L686 237L617 237L617 280L549 280L549 280L480 280L480 291L411 291L411 183L343 183L343 269L274 269L274 323L206 323L206 242L137 242L137 264L69 264L69 264L0 264Z" fill="#145b6d"></path><path d="M0 395L69 395L69 374L137 374L137 411L206 411L206 438L274 438L274 368L343 368L343 336L411 336L411 422L480 422L480 411L549 411L549 417L617 417L617 422L686 422L686 395L754 395L754 357L823 357L823 433L891 433L891 433L960 433L960 422L960 345L960 366L891 366L891 361L823 361L823 274L754 274L754 296L686 296L686 323L617 323L617 339L549 339L549 345L480 345L480 366L411 366L411 269L343 269L343 307L274 307L274 388L206 388L206 328L137 328L137 323L69 323L69 334L0 334Z" fill="#163341"></path><path d="M0 541L69 541L69 541L137 541L137 541L206 541L206 541L274 541L274 541L343 541L343 541L411 541L411 541L480 541L480 541L549 541L549 541L617 541L617 541L686 541L686 541L754 541L754 541L823 541L823 541L891 541L891 541L960 541L960 541L960 420L960 431L891 431L891 431L823 431L823 355L754 355L754 393L686 393L686 420L617 420L617 415L549 415L549 409L480 409L480 420L411 420L411 334L343 334L343 366L274 366L274 436L206 436L206 409L137 409L137 372L69 372L69 393L0 393Z" fill="#060f16"></path></svg>