<svg id="visual" viewBox="0 0 675 900" width="675" height="900" xmlns="http://www.w3.org/2000/svg" xmlns:xlink="http://www.w3.org/1999/xlink" version="1.1"><path d="M0 109L48 109L48 226L96 226L96 163L145 163L145 127L193 127L193 109L241 109L241 127L289 127L289 118L338 118L338 172L386 172L386 118L434 118L434 127L482 127L482 91L530 91L530 127L579 127L579 154L627 154L627 217L675 217L675 163L675 0L675 0L627 0L627 0L579 0L579 0L530 0L530 0L482 0L482 0L434 0L434 0L386 0L386 0L338 0L338 0L289 0L289 0L241 0L241 0L193 0L193 0L145 0L145 0L96 0L96 0L48 0L48 0L0 0Z" fill="#00b6b9"></path><path d="M0 442L48 442L48 442L96 442L96 406L145 406L145 541L193 541L193 451L241 451L241 307L289 307L289 487L338 487L338 469L386 469L386 469L434 469L434 397L482 397L482 370L530 370L530 316L579 316L579 505L627 505L627 487L675 487L675 487L675 161L675 215L627 215L627 152L579 152L579 125L530 125L530 89L482 89L482 125L434 125L434 116L386 116L386 170L338 170L338 116L289 116L289 125L241 125L241 107L193 107L193 125L145 125L145 161L96 161L96 224L48 224L48 107L0 107Z" fill="#008796"></path><path d="M0 559L48 559L48 541L96 541L96 550L145 550L145 649L193 649L193 514L241 514L241 451L289 451L289 613L338 613L338 577L386 577L386 568L434 568L434 541L482 541L482 496L530 496L530 460L579 460L579 604L627 604L627 613L675 613L675 577L675 485L675 485L627 485L627 503L579 503L579 314L530 314L530 368L482 368L482 395L434 395L434 467L386 467L386 467L338 467L338 485L289 485L289 305L241 305L241 449L193 449L193 539L145 539L145 404L96 404L96 440L48 440L48 440L0 440Z" fill="#145b6d"></path><path d="M0 658L48 658L48 622L96 622L96 685L145 685L145 730L193 730L193 613L241 613L241 559L289 559L289 703L338 703L338 685L386 685L386 694L434 694L434 703L482 703L482 658L530 658L530 595L579 595L579 721L627 721L627 721L675 721L675 703L675 575L675 611L627 611L627 602L579 602L579 458L530 458L530 494L482 494L482 539L434 539L434 566L386 566L386 575L338 575L338 611L289 611L289 449L241 449L241 512L193 512L193 647L145 647L145 548L96 548L96 539L48 539L48 557L0 557Z" fill="#163341"></path><path d="M0 901L48 901L48 901L96 901L96 901L145 901L145 901L193 901L193 901L241 901L241 901L289 901L289 901L338 901L338 901L386 901L386 901L434 901L434 901L482 901L482 901L530 901L530 901L579 901L579 901L627 901L627 901L675 901L675 901L675 701L675 719L627 719L627 719L579 719L579 593L530 593L530 656L482 656L482 701L434 701L434 692L386 692L386 683L338 683L338 701L289 701L289 557L241 557L241 611L193 611L193 728L145 728L145 683L96 683L96 620L48 620L48 656L0 656Z" fill="#060f16"></path></svg>