<?xml version="1.0" standalone="no"?>
<!DOCTYPE svg PUBLIC "-//W3C//DTD SVG 20010904//EN"
 "http://www.w3.org/TR/2001/REC-SVG-20010904/DTD/svg10.dtd">
<svg version="1.0" xmlns="http://www.w3.org/2000/svg"
 width="218.000000pt" height="163.000000pt" viewBox="0 0 218.000000 163.000000"
 preserveAspectRatio="xMidYMid meet">
<metadata>
Created by potrace 1.10, written by Peter Selinger 2001-2011
</metadata>
<g transform="translate(0.000000,163.000000) scale(0.100000,-0.100000)"
fill="#08f9ff" stroke="none">
<path d="M1085 1441 c-38 -9 -68 -26 -85 -46 -22 -27 -2 -30 45 -7 52 25 125
30 125 8 0 -8 -14 -19 -31 -25 -40 -14 -39 -14 -33 4 9 21 -10 19 -31 -5 -10
-11 -26 -20 -36 -20 -21 0 -34 -17 -18 -22 7 -2 4 -15 -7 -35 -15 -26 -16 -33
-5 -47 29 -35 151 -1 151 43 0 18 -38 41 -65 41 -8 0 -15 5 -15 10 0 6 15 10
34 10 39 0 86 33 86 60 0 35 -47 47 -115 31z m40 -142 c11 -11 -6 -25 -43 -35
-30 -8 -46 8 -37 36 6 19 12 21 38 16 17 -4 36 -11 42 -17z"/>
<path d="M1236 1315 c-43 -15 -56 -29 -56 -62 0 -16 6 -23 19 -23 11 0 23 5
26 10 11 18 26 10 20 -10 -5 -16 -2 -20 16 -20 12 0 31 7 41 17 17 15 18 15
18 -15 0 -35 27 -50 59 -33 27 15 29 14 33 -11 2 -19 9 -23 38 -21 19 1 29 0
23 -3 -7 -3 -13 -14 -13 -25 0 -17 5 -19 34 -13 31 5 34 4 29 -14 -4 -19 -1
-20 36 -15 46 6 54 -3 15 -17 -34 -13 -26 -34 14 -38 28 -3 31 -6 22 -22 -8
-15 -5 -22 12 -34 25 -18 73 -22 63 -6 -3 6 -15 10 -25 10 -20 0 -36 17 -26
28 4 3 25 5 47 3 30 -1 40 2 37 11 -3 8 -27 14 -67 16 -43 2 -61 7 -58 15 2 7
18 13 35 15 20 2 32 9 32 18 0 10 -13 14 -50 14 -27 0 -50 5 -50 10 0 6 11 10
25 10 14 0 25 4 25 10 0 6 -23 7 -60 3 -43 -4 -60 -2 -60 6 0 6 8 14 18 18 30
11 56 43 44 55 -13 13 -84 14 -160 3 -50 -7 -54 -6 -50 11 2 13 13 19 33 20
51 2 55 4 55 19 0 21 -49 19 -105 -5 -26 -11 -49 -20 -51 -20 -9 0 -3 19 9 32
21 20 37 55 30 62 -10 9 -34 7 -77 -9z m44 -23 c0 -10 -71 -45 -77 -38 -8 8 8
27 31 36 27 11 46 12 46 2z m240 -111 c0 -9 -80 -25 -87 -17 -3 3 -2 9 2 15 7
13 85 15 85 2z"/>
<path d="M805 1263 c-24 -45 -25 -46 -19 -14 9 46 -18 37 -28 -10 -5 -26 -3
-38 12 -53 17 -18 18 -18 25 13 8 39 25 50 25 17 0 -16 6 -26 15 -26 15 0 46
49 44 72 0 7 -5 3 -11 -9 -13 -28 -44 -32 -33 -5 30 71 7 83 -30 15z"/>
<path d="M1437 1303 c-10 -9 -9 -23 1 -23 5 0 17 7 28 15 19 14 19 14 -2 15
-11 0 -24 -3 -27 -7z"/>
<path d="M671 1236 c-7 -8 -14 -31 -17 -53 -8 -53 -24 -93 -39 -93 -21 0 -25
12 -10 34 17 23 20 62 6 71 -13 8 -51 -43 -51 -69 0 -12 7 -32 16 -44 23 -33
57 -25 68 15 9 28 13 31 36 26 23 -4 30 1 48 32 25 41 26 46 12 43 -6 -2 -16
8 -23 21 -15 30 -30 36 -46 17z m33 -52 c8 -31 -8 -54 -25 -37 -11 11 -2 63
11 63 4 0 11 -12 14 -26z m-101 -39 c-5 -13 -23 -22 -23 -11 0 15 14 35 21 31
4 -3 6 -12 2 -20z"/>
<path d="M456 1193 c-10 -11 -6 -84 9 -157 10 -46 11 -74 5 -87 -12 -22 -13
-59 -2 -59 5 0 17 13 29 28 11 15 37 39 57 52 23 16 36 33 36 48 0 29 -7 28
-55 -9 l-40 -30 -12 68 c-15 81 -12 116 6 56 12 -44 31 -58 31 -24 0 23 -35
107 -48 115 -5 3 -12 3 -16 -1z"/>
<path d="M960 1119 c-58 -34 -156 -92 -218 -128 l-113 -66 0 -260 0 -260 33
-21 c18 -12 105 -63 193 -114 88 -51 174 -101 190 -110 l30 -18 115 67 c64 36
164 94 223 129 l107 63 0 263 0 263 -162 93 c-89 52 -186 109 -217 127 -30 18
-60 33 -66 33 -6 0 -58 -28 -115 -61z m315 -79 c104 -61 194 -115 198 -119 5
-5 9 -101 8 -213 -1 -119 2 -215 8 -231 7 -17 7 -27 1 -27 -6 0 -10 5 -10 12
0 16 -50 68 -66 68 -10 0 -100 -48 -300 -162 l-61 -35 -136 77 c-76 43 -144
83 -152 90 -13 11 -21 8 -48 -18 -18 -18 -36 -32 -40 -32 -3 0 -8 92 -9 205
-2 141 0 205 8 205 6 0 21 -11 34 -25 13 -14 28 -25 33 -25 9 0 187 99 309
172 l48 28 157 -90 157 -90 33 32 c40 38 34 49 -12 24 l-34 -19 -88 50 c-128
74 -204 113 -218 113 -7 0 -15 17 -18 38 -3 20 -8 47 -12 60 -5 16 -3 22 7 22
7 0 99 -50 203 -110z m-215 37 l0 -42 -156 -88 -156 -87 -29 21 c-28 19 -38
39 -21 39 5 0 84 45 178 100 93 54 172 99 177 100 4 0 7 -19 7 -43z m386 -623
l34 -26 -187 -110 c-103 -60 -191 -115 -196 -123 -4 -8 -15 -15 -23 -15 -12 0
-285 155 -396 224 -22 14 -23 36 -2 36 9 0 29 8 44 17 33 19 24 22 165 -57 92
-52 137 -75 166 -83 11 -4 18 -23 23 -58 8 -62 26 -50 26 17 0 38 3 42 38 58
20 9 87 46 147 81 61 35 114 64 118 64 5 1 24 -11 43 -25z"/>
<path d="M1045 854 c-13 -14 -27 -39 -30 -55 -8 -36 -29 -33 -33 4 -2 15 -8
25 -13 22 -16 -10 -10 -43 10 -57 20 -14 20 -15 -2 -77 -21 -62 -22 -62 -54
-56 -40 7 -58 -19 -28 -41 15 -11 22 -11 43 0 21 11 30 10 64 -6 24 -12 50
-17 64 -14 22 6 23 4 14 -20 -13 -32 -13 -54 -1 -54 6 0 18 27 27 60 17 60 17
60 54 60 22 0 47 -8 61 -19 52 -42 -19 -112 -116 -113 -53 -1 -57 -21 -5 -26
71 -7 160 50 160 103 0 23 -28 55 -49 55 -7 0 1 12 18 26 48 40 36 95 -24 110
-32 8 -107 -8 -113 -25 -3 -10 0 -11 18 -1 26 14 35 8 25 -17 -5 -10 -16 -38
-25 -63 -18 -51 -35 -58 -98 -41 l-39 11 25 65 c19 48 31 65 45 65 10 0 32 13
48 29 44 45 38 101 -12 101 -6 0 -21 -12 -34 -26z m50 -27 c-7 -28 -51 -74
-61 -64 -8 8 14 66 34 90 20 23 35 8 27 -26z m109 -83 c47 -18 36 -85 -17
-104 -63 -22 -68 -10 -32 77 14 34 21 38 49 27z m-269 -134 c-3 -5 -12 -10
-20 -10 -8 0 -17 5 -20 10 -4 6 5 10 20 10 15 0 24 -4 20 -10z"/>
<path d="M1732 1018 c5 -15 37 -18 41 -3 1 6 -9 12 -22 13 -16 3 -22 -1 -19
-10z"/>
</g>
</svg>
